<svg width="417" height="674" viewBox="0 0 417 674" fill="none" xmlns="http://www.w3.org/2000/svg">
<path d="M75 163.098V286.902C75 296.269 80.0059 304.902 88.1045 309.586L195.396 371.488C203.494 376.171 213.506 376.171 221.604 371.488L328.896 309.586C336.994 304.902 342 296.269 342 286.902V163.098C342 153.731 336.994 145.098 328.896 140.414L221.604 78.5125C213.506 73.8292 203.494 73.8292 195.396 78.5125L88.1045 140.414C80.0059 145.098 75 153.731 75 163.098Z" fill="#2C2D41"/>
<path fill-rule="evenodd" clip-rule="evenodd" d="M291.607 156.369L227.309 119.106C216.588 112.892 203.356 112.916 192.656 119.166L127.312 157.341C116.74 163.518 110.24 174.843 110.24 187.087V259.5H110.476V261.192C110.476 274.2 117.443 286.211 128.734 292.67L170.371 316.487C172 317.419 174.071 316.954 175.145 315.415L181.893 305.75C184.354 302.224 184.508 297.58 182.286 293.899L127.443 203.062C121.588 190.167 130.947 174.959 145.651 174.959H273.539C289.046 174.959 298.621 191.88 290.637 205.173L267.426 243.82L237.191 293.899C234.968 297.58 235.122 302.224 237.584 305.75L244.331 315.415C245.406 316.954 247.476 317.419 249.105 316.487L290.743 292.67C302.034 286.211 309 274.2 309 261.192V187.982C309 187.517 308.923 187.088 308.783 186.702V186.176C308.783 173.888 302.238 162.53 291.607 156.369ZM192.267 328.845L203.177 335.13C207.379 337.55 212.552 337.55 216.753 335.13L227.663 328.845C231.321 326.737 232.413 321.962 230.035 318.474L214.459 295.634C212.3 292.467 207.63 292.467 205.471 295.634L189.896 318.474C187.517 321.962 188.609 326.737 192.267 328.845ZM240.382 244.327L217.855 204.529C214.383 198.395 205.547 198.395 202.075 204.529L179.548 244.327C176.127 250.371 180.493 257.859 187.438 257.859H232.493C239.437 257.859 243.803 250.371 240.382 244.327Z" fill="url(#paint0_linear)"/>
<path d="M217.855 204.529L240.382 244.328C243.803 250.371 239.437 257.859 232.493 257.859H187.438C180.493 257.859 176.127 250.371 179.548 244.328L202.075 204.529C205.547 198.396 214.383 198.396 217.855 204.529Z" fill="#E84142"/>
<path d="M217.855 204.529L240.382 244.328C243.803 250.371 239.437 257.859 232.493 257.859H187.438C180.493 257.859 176.127 250.371 179.548 244.328L202.075 204.529C205.547 198.396 214.383 198.396 217.855 204.529Z" fill="#F25C5D"/>
<path d="M144.52 546.255H130.713L130.301 538.46H138.423C141.576 538.46 144.52 541.29 144.52 544.813V546.255Z" fill="#2C2D41"/>
<path d="M130.378 549.565H144.186V591.157L130.521 599.966H130.378V549.565Z" fill="#2C2D41"/>
<path d="M98.4119 599.966H98.4596L112.363 590.997V573.536H125.129V562.111H112.363V550.739H126.18L125.769 538.46H98L98.4119 599.966Z" fill="#2C2D41"/>
<path d="M171.21 548.657C173.503 548.657 175.366 549.244 176.847 550.472C178.328 551.7 179.284 553.195 179.618 555.064C180.048 556.879 180.24 559.922 180.24 564.247V589.98L166.862 599.859V562.218L162.753 564.193V591.157L149.375 599.806V549.511H162.992L162.753 554.049C163.756 552.234 164.951 550.899 166.336 549.992C167.77 549.084 169.394 548.657 171.21 548.657Z" fill="#2C2D41"/>
<path fill-rule="evenodd" clip-rule="evenodd" d="M214.955 574.07C214.955 565.955 214.717 560.563 214.239 557.947C213.761 555.331 212.375 553.142 210.082 551.327C207.789 549.511 204.349 548.657 199.858 548.657C196.083 548.657 193.026 549.458 190.637 551.006C188.248 552.608 186.719 554.423 185.907 556.452C185.142 558.534 184.712 561.47 184.712 565.261V568.571H197.278V558L201.291 556.078C201.434 556.986 201.482 561.951 201.482 563.552C201.482 565.581 201.339 566.969 201.004 567.61C200.718 568.304 198.329 569.585 193.933 571.507C189.825 573.269 187.245 574.817 186.194 576.152C185.142 577.487 184.617 579.996 184.617 583.68V587.327C184.617 592.292 185.572 595.496 187.531 596.99C189.49 598.485 191.64 599.179 193.981 599.179C195.749 599.179 197.326 598.752 198.616 597.845C199.906 596.937 200.957 595.656 201.769 593.894V599.503H202.008L214.812 591.227V574.07H214.955ZM201.578 585.031C201.578 587.487 201.434 589.036 201.196 589.623C200.957 590.21 200.383 590.477 199.571 590.477C198.663 590.477 198.09 590.103 197.803 589.356C197.517 588.608 197.373 586.953 197.373 584.444C197.373 582.202 197.565 580.904 197.899 579.729C198.233 578.555 199.476 577.06 201.626 575.298V585.031H201.578Z" fill="#2C2D41"/>
<path d="M241.788 548.657C244.082 548.657 245.945 549.244 247.426 550.472C248.907 551.7 249.815 553.195 250.293 555.064C250.723 556.879 250.914 559.922 250.914 564.247V591.067L237.871 599.503H237.488V563.179L233.38 565.154V590.907L220.002 599.503H219.954V549.511H233.571L233.38 553.515C233.451 553.489 233.511 553.462 233.571 553.435C233.63 553.409 233.69 553.382 233.762 553.355C234.622 551.914 235.673 550.793 236.915 549.992C238.348 549.084 239.973 548.657 241.788 548.657Z" fill="#2C2D41"/>
<path d="M285.486 568.091C285.486 563.446 285.056 559.922 284.244 557.359C284.101 556.932 283.957 556.559 283.766 556.185C282.858 554.21 281.377 552.501 279.275 551.113C276.791 549.458 273.829 548.604 270.341 548.604C266.805 548.604 263.843 549.458 261.406 551.113C258.97 552.768 257.345 554.69 256.581 556.826C255.817 558.961 255.434 562.111 255.434 566.275V580.263C255.434 585.068 255.912 588.342 256.82 590.958C257.728 593.574 259.304 595.602 261.502 597.044C263.7 598.485 266.71 599.233 270.484 599.233C273.446 599.233 275.931 598.699 277.937 597.631C279.944 596.563 281.568 595.015 282.811 592.986C284.053 590.904 284.817 588.929 285.056 586.953C285.104 586.58 285.152 586.153 285.152 585.726L273.494 578.198V584.374C273.494 586.937 273.351 588.235 273.016 589.142C272.682 590.05 272.061 590.53 271.153 590.53C270.389 590.53 269.815 590.103 269.385 589.196C269.003 588.342 268.812 587.007 268.812 585.245V558L272.777 556.132V568.091H285.486Z" fill="#2C2D41"/>
<path fill-rule="evenodd" clip-rule="evenodd" d="M313.197 551.006C315.682 552.608 317.354 554.743 318.357 557.359C319.361 560.029 319.838 563.713 319.838 568.464V575.031H302.304V585.192C302.304 587.434 302.447 588.875 302.734 589.516C303.021 590.157 303.594 590.477 304.406 590.477C305.457 590.477 306.126 590.05 306.461 589.196C306.795 588.342 306.986 586.687 306.986 584.231V577.771L307.082 578.181L319.552 585.832C319.504 586.847 319.361 587.701 319.217 588.448C318.883 590.103 318.07 591.812 316.828 593.68C315.586 595.549 313.962 596.937 312.051 597.845C310.139 598.752 307.703 599.233 304.788 599.233C301.97 599.233 299.437 598.752 297.287 597.845C295.09 596.937 293.417 595.709 292.223 594.108C291.029 592.506 290.216 590.744 289.739 588.822C289.739 588.795 289.727 588.755 289.715 588.715C289.703 588.675 289.691 588.635 289.691 588.608C289.261 586.687 289.022 584.374 289.022 580.85V566.489C289.022 562.164 289.547 558.801 290.599 556.292C291.554 553.943 293.179 552.127 295.329 550.793C295.4 550.766 295.46 550.726 295.52 550.686C295.579 550.646 295.639 550.606 295.711 550.579C298.1 549.244 300.823 548.604 303.881 548.604C307.655 548.604 310.761 549.405 313.197 551.006ZM302.495 567.023H306.365V563.498C306.365 562.375 306.365 556.932 306.317 556.185L302.495 558.053V567.023Z" fill="#2C2D41"/>
<path fill-rule="evenodd" clip-rule="evenodd" d="M136.588 452.431C135.346 450.83 133.53 449.708 131.189 449.014C128.8 448.32 124.261 448 117.525 448H107.062V508.776H124.691C125.79 508.776 126.841 508.776 127.749 508.722C129.612 508.616 131.094 508.455 132.192 508.188C133.865 507.761 135.25 507.067 136.349 506.053C137.496 505.039 138.26 503.597 138.738 501.782C138.977 500.874 139.12 499.433 139.263 497.618C139.359 495.856 139.407 493.613 139.407 490.997V469.552C139.407 463.893 139.263 459.639 138.929 457.717C138.642 455.795 137.83 454.033 136.588 452.431ZM125.456 491.478L121.06 493.613V462.879L125.456 460.796V491.478Z" fill="#2C2D41"/>
<path fill-rule="evenodd" clip-rule="evenodd" d="M173.09 467.043C172.086 464.427 170.414 462.291 167.93 460.69C165.493 459.088 162.388 458.287 158.613 458.287C155.555 458.287 152.832 458.928 150.443 460.262C148.054 461.597 146.382 463.466 145.331 465.975C144.28 468.484 143.754 471.848 143.754 476.172V490.123C143.754 493.754 143.993 496.583 144.471 498.505C144.949 500.427 145.761 502.189 146.956 503.791C148.15 505.393 149.822 506.62 152.02 507.528C154.17 508.436 156.702 508.916 159.521 508.916C162.435 508.916 164.872 508.436 166.783 507.528C168.694 506.62 170.319 505.232 171.561 503.364C172.803 501.495 173.615 499.787 173.95 498.132C174.093 497.384 174.236 496.53 174.284 495.516L161.862 487.918L161.719 487.507V493.967C161.719 496.423 161.528 498.078 161.193 498.933C160.859 499.787 160.19 500.214 159.139 500.214C158.327 500.214 157.753 499.894 157.467 499.253C157.18 498.612 157.037 497.171 157.037 494.928V484.714H174.38V476.759C174.427 472.702 173.95 469.445 173.09 467.043ZM157.228 476.706V473.129C157.228 472.275 157.228 468.378 157.275 467.737L161.002 465.975C161.098 466.883 161.193 471.421 161.193 473.129V476.706H157.228Z" fill="#2C2D41"/>
<path d="M181.624 450.563C182.388 449.708 183.487 449.068 184.92 448.641C186.306 448.214 188.504 448 191.514 448H196.435V456.349C195.202 456.349 194.524 456.509 193.998 456.776C193.473 457.043 193.234 457.95 193.234 459.285V460.423H196.435V468.217H193.234V500.947L179.856 509.596V468.111H177.085V460.316H179.856C179.856 457.113 179.952 454.513 180.143 453.446C180.334 452.378 180.859 451.417 181.624 450.563Z" fill="#2C2D41"/>
<path d="M212.643 465.708L213.168 459.248H199.791V509.65L212.756 501.001V488.985C212.756 484.234 212.9 481.191 213.139 479.856C213.425 478.521 214.094 477.507 215.241 476.759C216.388 476.012 218.615 475.638 221.052 475.638V458.341C217.421 458.607 214.602 461.063 212.643 465.708Z" fill="#2C2D41"/>
<path fill-rule="evenodd" clip-rule="evenodd" d="M247.197 459.835C249.347 460.85 250.972 462.131 252.166 463.733C253.361 465.334 254.077 466.989 254.507 468.698C254.937 470.406 255.176 473.022 255.176 476.493V488.201C255.176 491.351 255.081 493.861 254.889 495.836C254.794 496.637 254.698 497.331 254.603 497.918C254.221 499.947 253.361 501.869 252.071 503.684C250.781 505.446 249.108 506.781 247.054 507.635C245 508.489 242.658 508.916 239.983 508.916C239.314 508.916 238.693 508.916 238.072 508.863C235.922 508.756 234.059 508.436 232.434 507.848C230.38 507.101 228.803 506.033 227.656 504.538C226.844 503.524 226.175 502.296 225.698 500.908C225.506 500.374 225.363 499.787 225.22 499.2C224.981 498.132 224.838 496.85 224.694 495.302C224.551 493.754 224.503 491.885 224.503 489.803V477.614C224.503 473.022 224.933 469.445 225.841 466.883C226.749 464.32 228.325 462.238 230.619 460.69C232.912 459.141 235.874 458.341 239.457 458.341C242.467 458.341 245.047 458.821 247.197 459.835ZM241.846 496.85V469.125L237.929 470.994V498.719L241.846 496.85Z" fill="#2C2D41"/>
<path d="M286.643 485.675C285.449 483.807 282.869 481.778 278.999 479.696C276.419 478.254 274.603 477.187 273.6 476.332C273.457 476.226 273.313 476.119 273.218 476.012C272.262 475.158 271.737 474.41 271.546 473.716C271.354 473.022 271.259 471.955 271.259 470.513L275.416 468.538C275.559 469.285 275.607 470.566 275.607 472.275V474.944H275.75L287.264 467.523C287.217 467.203 287.169 466.883 287.121 466.669C286.882 465.495 286.213 464.267 285.114 462.879C284.015 461.49 282.439 460.423 280.384 459.622C278.33 458.821 275.846 458.394 272.931 458.394C269.969 458.394 267.389 458.874 265.191 459.889C262.946 460.903 261.417 462.345 260.461 464.213C259.553 466.028 259.076 468.965 259.076 472.862C259.076 475.638 259.506 478.041 260.366 480.016C261.226 482.045 263.615 484.287 267.58 486.743C272.262 489.679 274.842 490.978 275.368 491.618C275.846 492.206 276.084 493.647 276.084 495.943L271.546 498.078C271.402 497.117 271.307 495.729 271.307 493.807V490.711H259.41V493.113C259.41 497.224 259.84 500.267 260.748 502.296C261.656 504.325 263.328 505.926 265.717 507.101C268.153 508.275 271.068 508.863 274.46 508.863C277.518 508.863 280.146 508.329 282.343 507.208C284.541 506.087 286.07 504.538 287.025 502.51C287.933 500.481 288.411 497.438 288.411 493.434C288.411 490.817 288.077 489.092 287.455 487.384C287.264 486.797 286.978 486.209 286.643 485.675Z" fill="#2C2D41"/>
<path d="M307.008 495.715C307.008 498.972 307.103 500.787 307.39 501.161C307.677 501.535 308.919 501.695 311.117 501.695V502.068L299.794 509.383C299.698 509.356 299.602 509.343 299.507 509.329C299.411 509.316 299.316 509.303 299.22 509.276C297.93 508.956 296.784 508.315 295.78 507.301C294.777 506.286 294.156 505.112 293.917 503.777C293.678 502.442 293.535 499.346 293.535 494.434V468.217H290.668V462.184L307.008 452.788V460.423H310.639V468.217H307.008V495.715Z" fill="#2C2D41"/>
<defs>
<linearGradient id="paint0_linear" x1="209.62" y1="114.462" x2="209.62" y2="336.945" gradientUnits="userSpaceOnUse">
<stop stop-color="#94C8F9"/>
<stop offset="0.0625" stop-color="#88C1F6"/>
<stop offset="0.416667" stop-color="#4497E4"/>
<stop offset="1" stop-color="#0638DC"/>
</linearGradient>
</defs>
</svg>
