<svg width="343" height="600" viewBox="0 0 343 600" fill="none" xmlns="http://www.w3.org/2000/svg">
<path d="M38 126.098V249.902C38 259.269 43.0059 267.902 51.1045 272.586L158.396 334.488C166.494 339.171 176.506 339.171 184.604 334.488L291.896 272.586C299.994 267.902 305 259.269 305 249.902V126.098C305 116.731 299.994 108.098 291.896 103.414L184.604 41.5125C176.506 36.8292 166.494 36.8292 158.396 41.5125L51.1045 103.414C43.0059 108.098 38 116.731 38 126.098Z" fill="#2C2D41"/>
<path fill-rule="evenodd" clip-rule="evenodd" d="M254.607 119.369L190.309 82.1057C179.588 75.8924 166.356 75.9155 155.656 82.1663L90.3124 120.341C79.7397 126.518 73.2402 137.843 73.2402 150.087V222.5H73.4762V224.192C73.4762 237.2 80.443 249.211 91.7339 255.67L133.371 279.487C135 280.419 137.071 279.954 138.145 278.415L144.893 268.75C147.354 265.224 147.508 260.58 145.286 256.899L90.4431 166.062C84.5881 153.167 93.9466 137.959 108.651 137.959H236.539C252.046 137.959 261.621 154.88 253.637 168.173L230.426 206.82L200.191 256.899C197.968 260.58 198.122 265.224 200.584 268.75L207.331 278.415C208.406 279.954 210.476 280.419 212.105 279.487L253.743 255.67C265.034 249.211 272 237.2 272 224.192V150.982C272 150.517 271.923 150.088 271.783 149.702V149.176C271.783 136.888 265.238 125.53 254.607 119.369ZM155.267 291.845L166.177 298.13C170.379 300.55 175.552 300.55 179.753 298.13L190.663 291.845C194.321 289.737 195.413 284.962 193.035 281.474L177.459 258.634C175.3 255.467 170.63 255.467 168.471 258.634L152.896 281.474C150.517 284.962 151.609 289.737 155.267 291.845ZM203.382 207.327L180.855 167.529C177.383 161.395 168.547 161.395 165.075 167.529L142.548 207.327C139.127 213.371 143.493 220.859 150.438 220.859H195.493C202.437 220.859 206.803 213.371 203.382 207.327Z" fill="url(#paint0_linear)"/>
<path d="M180.855 167.529L203.382 207.328C206.803 213.371 202.437 220.859 195.493 220.859H150.438C143.493 220.859 139.127 213.371 142.548 207.328L165.075 167.529C168.547 161.396 177.383 161.396 180.855 167.529Z" fill="#E84142"/>
<path d="M180.855 167.529L203.382 207.328C206.803 213.371 202.437 220.859 195.493 220.859H150.438C143.493 220.859 139.127 213.371 142.548 207.328L165.075 167.529C168.547 161.396 177.383 161.396 180.855 167.529Z" fill="#F25C5D"/>
<path d="M107.52 509.255H93.7126L93.3007 501.46H101.423C104.576 501.46 107.52 504.29 107.52 507.813V509.255Z" fill="#2C2D41"/>
<path d="M93.3781 512.565H107.186V554.157L93.5214 562.966H93.3781V512.565Z" fill="#2C2D41"/>
<path d="M61.4119 562.966H61.4596L75.3628 553.997V536.536H88.1293V525.111H75.3628V513.739H89.1804L88.7685 501.46H61L61.4119 562.966Z" fill="#2C2D41"/>
<path d="M134.21 511.657C136.503 511.657 138.366 512.244 139.847 513.472C141.328 514.7 142.284 516.195 142.618 518.064C143.048 519.879 143.24 522.922 143.24 527.247V552.98L129.862 562.859V525.218L125.753 527.193V554.157L112.375 562.806V512.511H125.992L125.753 517.049C126.756 515.234 127.951 513.899 129.336 512.992C130.77 512.084 132.394 511.657 134.21 511.657Z" fill="#2C2D41"/>
<path fill-rule="evenodd" clip-rule="evenodd" d="M177.955 537.07C177.955 528.955 177.717 523.563 177.239 520.947C176.761 518.331 175.375 516.142 173.082 514.327C170.789 512.511 167.349 511.657 162.858 511.657C159.083 511.657 156.026 512.458 153.637 514.006C151.248 515.608 149.719 517.423 148.907 519.452C148.142 521.534 147.712 524.47 147.712 528.261V531.571H160.278V521L164.291 519.078C164.434 519.986 164.482 524.951 164.482 526.552C164.482 528.581 164.339 529.969 164.004 530.61C163.718 531.304 161.329 532.585 156.933 534.507C152.825 536.269 150.245 537.817 149.194 539.152C148.142 540.487 147.617 542.996 147.617 546.68V550.327C147.617 555.292 148.572 558.496 150.531 559.99C152.49 561.485 154.64 562.179 156.981 562.179C158.749 562.179 160.326 561.752 161.616 560.845C162.906 559.937 163.957 558.656 164.769 556.894V562.503H165.008L177.812 554.227V537.07H177.955ZM164.578 548.031C164.578 550.487 164.434 552.036 164.196 552.623C163.957 553.21 163.383 553.477 162.571 553.477C161.663 553.477 161.09 553.103 160.803 552.356C160.517 551.608 160.373 549.953 160.373 547.444C160.373 545.202 160.565 543.904 160.899 542.729C161.233 541.555 162.476 540.06 164.626 538.298V548.031H164.578Z" fill="#2C2D41"/>
<path d="M204.788 511.657C207.082 511.657 208.945 512.244 210.426 513.472C211.907 514.7 212.815 516.195 213.293 518.064C213.723 519.879 213.914 522.922 213.914 527.247V554.067L200.871 562.503H200.488V526.179L196.38 528.154V553.907L183.002 562.503H182.954V512.511H196.571L196.38 516.515C196.451 516.489 196.511 516.462 196.571 516.435C196.63 516.409 196.69 516.382 196.762 516.355C197.622 514.914 198.673 513.793 199.915 512.992C201.348 512.084 202.973 511.657 204.788 511.657Z" fill="#2C2D41"/>
<path d="M248.486 531.091C248.486 526.446 248.056 522.922 247.244 520.359C247.101 519.932 246.957 519.559 246.766 519.185C245.858 517.21 244.377 515.501 242.275 514.113C239.791 512.458 236.829 511.604 233.341 511.604C229.805 511.604 226.843 512.458 224.406 514.113C221.97 515.768 220.345 517.69 219.581 519.826C218.817 521.961 218.434 525.111 218.434 529.275V543.263C218.434 548.068 218.912 551.342 219.82 553.958C220.728 556.574 222.304 558.602 224.502 560.044C226.7 561.485 229.71 562.233 233.484 562.233C236.446 562.233 238.931 561.699 240.937 560.631C242.944 559.563 244.568 558.015 245.811 555.986C247.053 553.904 247.817 551.929 248.056 549.953C248.104 549.58 248.152 549.153 248.152 548.726L236.494 541.198V547.374C236.494 549.937 236.351 551.235 236.016 552.142C235.682 553.05 235.061 553.53 234.153 553.53C233.389 553.53 232.815 553.103 232.385 552.196C232.003 551.342 231.812 550.007 231.812 548.245V521L235.777 519.132V531.091H248.486Z" fill="#2C2D41"/>
<path fill-rule="evenodd" clip-rule="evenodd" d="M276.197 514.006C278.682 515.608 280.354 517.743 281.357 520.359C282.361 523.029 282.838 526.713 282.838 531.464V538.031H265.304V548.192C265.304 550.434 265.447 551.875 265.734 552.516C266.021 553.157 266.594 553.477 267.406 553.477C268.457 553.477 269.126 553.05 269.461 552.196C269.795 551.342 269.986 549.687 269.986 547.231V540.771L270.082 541.181L282.552 548.832C282.504 549.847 282.361 550.701 282.217 551.448C281.883 553.103 281.07 554.812 279.828 556.68C278.586 558.549 276.962 559.937 275.051 560.845C273.139 561.752 270.703 562.233 267.788 562.233C264.97 562.233 262.437 561.752 260.287 560.845C258.09 559.937 256.417 558.709 255.223 557.108C254.029 555.506 253.216 553.744 252.739 551.822C252.739 551.795 252.727 551.755 252.715 551.715C252.703 551.675 252.691 551.635 252.691 551.608C252.261 549.687 252.022 547.374 252.022 543.85V529.489C252.022 525.164 252.547 521.801 253.599 519.292C254.554 516.943 256.179 515.127 258.329 513.793C258.4 513.766 258.46 513.726 258.52 513.686C258.579 513.646 258.639 513.606 258.711 513.579C261.1 512.244 263.823 511.604 266.881 511.604C270.655 511.604 273.761 512.405 276.197 514.006ZM265.495 530.023H269.365V526.498C269.365 525.375 269.365 519.932 269.317 519.185L265.495 521.053V530.023Z" fill="#2C2D41"/>
<path fill-rule="evenodd" clip-rule="evenodd" d="M99.5879 415.431C98.3457 413.83 96.5301 412.708 94.1891 412.014C91.8002 411.32 87.2613 411 80.5248 411H70.0615V471.776H87.6913C88.7902 471.776 89.8413 471.776 90.7491 471.722C92.6124 471.616 94.0935 471.455 95.1924 471.188C96.8646 470.761 98.2501 470.067 99.349 469.053C100.496 468.039 101.26 466.597 101.738 464.782C101.977 463.874 102.12 462.433 102.263 460.618C102.359 458.856 102.407 456.613 102.407 453.997V432.552C102.407 426.893 102.263 422.639 101.929 420.717C101.642 418.795 100.83 417.033 99.5879 415.431ZM88.4558 454.478L84.0603 456.613V425.879L88.4558 423.796V454.478Z" fill="#2C2D41"/>
<path fill-rule="evenodd" clip-rule="evenodd" d="M136.09 430.043C135.086 427.427 133.414 425.291 130.93 423.69C128.493 422.088 125.388 421.287 121.613 421.287C118.555 421.287 115.832 421.928 113.443 423.262C111.054 424.597 109.382 426.466 108.331 428.975C107.28 431.484 106.754 434.848 106.754 439.172V453.123C106.754 456.754 106.993 459.583 107.471 461.505C107.949 463.427 108.761 465.189 109.956 466.791C111.15 468.393 112.822 469.62 115.02 470.528C117.17 471.436 119.702 471.916 122.521 471.916C125.435 471.916 127.872 471.436 129.783 470.528C131.694 469.62 133.319 468.232 134.561 466.364C135.803 464.495 136.615 462.787 136.95 461.132C137.093 460.384 137.236 459.53 137.284 458.516L124.862 450.918L124.719 450.507V456.967C124.719 459.423 124.528 461.078 124.193 461.933C123.859 462.787 123.19 463.214 122.139 463.214C121.327 463.214 120.753 462.894 120.467 462.253C120.18 461.612 120.037 460.171 120.037 457.928V447.714H137.38V439.759C137.427 435.702 136.95 432.445 136.09 430.043ZM120.228 439.706V436.129C120.228 435.275 120.228 431.378 120.275 430.737L124.002 428.975C124.098 429.883 124.193 434.421 124.193 436.129V439.706H120.228Z" fill="#2C2D41"/>
<path d="M144.624 413.563C145.388 412.708 146.487 412.068 147.92 411.641C149.306 411.214 151.504 411 154.514 411H159.435V419.349C158.202 419.349 157.524 419.509 156.998 419.776C156.473 420.043 156.234 420.95 156.234 422.285V423.423H159.435V431.217H156.234V463.947L142.856 472.596V431.111H140.085V423.316H142.856C142.856 420.113 142.952 417.513 143.143 416.446C143.334 415.378 143.859 414.417 144.624 413.563Z" fill="#2C2D41"/>
<path d="M175.643 428.708L176.168 422.248H162.791V472.65L175.756 464.001V451.985C175.756 447.234 175.9 444.191 176.139 442.856C176.425 441.521 177.094 440.507 178.241 439.759C179.388 439.012 181.615 438.638 184.052 438.638V421.341C180.421 421.607 177.602 424.063 175.643 428.708Z" fill="#2C2D41"/>
<path fill-rule="evenodd" clip-rule="evenodd" d="M210.197 422.835C212.347 423.85 213.972 425.131 215.166 426.733C216.361 428.334 217.077 429.989 217.507 431.698C217.937 433.406 218.176 436.022 218.176 439.493V451.201C218.176 454.351 218.081 456.861 217.889 458.836C217.794 459.637 217.698 460.331 217.603 460.918C217.221 462.947 216.361 464.869 215.071 466.684C213.781 468.446 212.108 469.781 210.054 470.635C208 471.489 205.658 471.916 202.983 471.916C202.314 471.916 201.693 471.916 201.072 471.863C198.922 471.756 197.059 471.436 195.434 470.848C193.38 470.101 191.803 469.033 190.656 467.538C189.844 466.524 189.175 465.296 188.698 463.908C188.506 463.374 188.363 462.787 188.22 462.2C187.981 461.132 187.838 459.85 187.694 458.302C187.551 456.754 187.503 454.885 187.503 452.803V440.614C187.503 436.022 187.933 432.445 188.841 429.883C189.749 427.32 191.325 425.238 193.619 423.69C195.912 422.141 198.874 421.341 202.457 421.341C205.467 421.341 208.047 421.821 210.197 422.835ZM204.846 459.85V432.125L200.929 433.994V461.719L204.846 459.85Z" fill="#2C2D41"/>
<path d="M249.643 448.675C248.449 446.807 245.869 444.778 241.999 442.696C239.419 441.254 237.603 440.187 236.6 439.332C236.457 439.226 236.313 439.119 236.218 439.012C235.262 438.158 234.737 437.41 234.546 436.716C234.354 436.022 234.259 434.955 234.259 433.513L238.416 431.538C238.559 432.285 238.607 433.566 238.607 435.275V437.944H238.75L250.264 430.523C250.217 430.203 250.169 429.883 250.121 429.669C249.882 428.495 249.213 427.267 248.114 425.879C247.015 424.49 245.439 423.423 243.384 422.622C241.33 421.821 238.846 421.394 235.931 421.394C232.969 421.394 230.389 421.874 228.191 422.889C225.946 423.903 224.417 425.345 223.461 427.213C222.553 429.028 222.076 431.965 222.076 435.862C222.076 438.638 222.506 441.041 223.366 443.016C224.226 445.045 226.615 447.287 230.58 449.743C235.262 452.679 237.842 453.978 238.368 454.618C238.846 455.206 239.084 456.647 239.084 458.943L234.546 461.078C234.402 460.117 234.307 458.729 234.307 456.807V453.711H222.41V456.113C222.41 460.224 222.84 463.267 223.748 465.296C224.656 467.325 226.328 468.926 228.717 470.101C231.153 471.275 234.068 471.863 237.46 471.863C240.518 471.863 243.146 471.329 245.343 470.208C247.541 469.087 249.07 467.538 250.025 465.51C250.933 463.481 251.411 460.438 251.411 456.434C251.411 453.817 251.077 452.092 250.455 450.384C250.264 449.797 249.978 449.209 249.643 448.675Z" fill="#2C2D41"/>
<path d="M270.008 458.715C270.008 461.972 270.103 463.787 270.39 464.161C270.677 464.535 271.919 464.695 274.117 464.695V465.068L262.794 472.383C262.698 472.356 262.602 472.343 262.507 472.329C262.411 472.316 262.316 472.303 262.22 472.276C260.93 471.956 259.784 471.315 258.78 470.301C257.777 469.286 257.156 468.112 256.917 466.777C256.678 465.442 256.535 462.346 256.535 457.434V431.217H253.668V425.184L270.008 415.788V423.423H273.639V431.217H270.008V458.715Z" fill="#2C2D41"/>
<defs>
<linearGradient id="paint0_linear" x1="172.62" y1="77.4619" x2="172.62" y2="299.945" gradientUnits="userSpaceOnUse">
<stop stop-color="#94C8F9"/>
<stop offset="0.0625" stop-color="#88C1F6"/>
<stop offset="0.416667" stop-color="#4497E4"/>
<stop offset="1" stop-color="#0638DC"/>
</linearGradient>
</defs>
</svg>
