<svg width="1385" height="300" viewBox="0 0 1385 300" fill="none" xmlns="http://www.w3.org/2000/svg">
<path fill-rule="evenodd" clip-rule="evenodd" d="M0 211.902V88.098C0 78.7315 5.00585 70.0977 13.1045 65.4144L120.396 3.51245C128.494 -1.17082 138.506 -1.17082 146.604 3.51245L253.896 65.4144C261.994 70.0977 267 78.7315 267 88.098V211.902C267 221.269 261.994 229.902 253.896 234.586L146.604 296.488C138.506 301.171 128.494 301.171 120.396 296.488L13.1045 234.586C5.00585 229.902 0 221.269 0 211.902ZM152.309 44.1057L216.607 81.3691C227.238 87.5305 233.783 98.888 233.783 111.176V111.702C233.923 112.088 234 112.517 234 112.982V186.192C234 199.2 227.034 211.211 215.743 217.67L174.105 241.487C172.476 242.419 170.406 241.954 169.331 240.415L162.584 230.75C160.122 227.224 159.968 222.58 162.191 218.899L192.426 168.82L215.637 130.173C223.621 116.88 214.046 99.9593 198.539 99.9593H70.6513C55.9466 99.9593 46.5881 115.167 52.4431 128.062L107.286 218.899C109.508 222.58 109.354 227.224 106.893 230.75L100.145 240.415C99.0711 241.954 97.0003 242.419 95.3713 241.487L53.7339 217.67C42.443 211.211 35.4762 199.2 35.4762 186.192V184.5H35.2402V112.087C35.2402 99.8427 41.7397 88.5182 52.3124 82.3415L117.656 44.1663C128.356 37.9155 141.588 37.8924 152.309 44.1057ZM128.177 260.13L117.267 253.845C113.609 251.737 112.517 246.962 114.896 243.474L130.471 220.634C132.63 217.467 137.3 217.467 139.459 220.634L155.035 243.474C157.413 246.962 156.321 251.737 152.663 253.845L141.753 260.13C137.552 262.55 132.379 262.55 128.177 260.13ZM142.855 129.529L165.382 169.327C168.803 175.371 164.437 182.859 157.493 182.859H112.438C105.493 182.859 101.127 175.371 104.548 169.327L127.075 129.529C130.547 123.395 139.383 123.395 142.855 129.529Z" fill="white"/>
<path fill-rule="evenodd" clip-rule="evenodd" d="M387.688 85.4513C384.672 81.5473 380.264 78.8146 374.58 77.1229C368.78 75.4312 357.76 74.6504 341.404 74.6504H316V222.788H358.804C361.472 222.788 364.024 222.787 366.228 222.657C370.752 222.397 374.348 222.007 377.016 221.356C381.076 220.315 384.44 218.623 387.108 216.151C389.892 213.678 391.748 210.165 392.908 205.74C393.488 203.528 393.836 200.015 394.184 195.59C394.416 191.296 394.532 185.83 394.532 179.454V127.182C394.532 113.388 394.184 103.019 393.372 98.3342C392.676 93.6495 390.704 89.3552 387.688 85.4513ZM360.66 180.625L349.988 185.83V110.916L360.66 105.841V180.625Z" fill="white"/>
<path fill-rule="evenodd" clip-rule="evenodd" d="M476.312 121.066C473.876 114.69 469.816 109.484 463.784 105.581C457.868 101.677 450.328 99.7246 441.164 99.7246C433.74 99.7246 427.128 101.286 421.328 104.539C415.528 107.793 411.468 112.347 408.916 118.463C406.364 124.58 405.088 132.778 405.088 143.318V177.324C405.088 186.173 405.668 193.07 406.828 197.754C407.988 202.439 409.96 206.733 412.86 210.637C415.76 214.541 419.82 217.534 425.156 219.746C430.376 221.959 436.524 223.13 443.368 223.13C450.444 223.13 456.36 221.959 461 219.746C465.64 217.534 469.584 214.151 472.6 209.596C475.616 205.042 477.588 200.877 478.4 196.843C478.748 195.022 479.096 192.939 479.212 190.467L449.052 171.947L448.704 170.947V186.693C448.704 192.679 448.24 196.713 447.428 198.795C446.616 200.877 444.992 201.918 442.44 201.918C440.468 201.918 439.076 201.138 438.38 199.576C437.684 198.015 437.336 194.501 437.336 189.036V164.139H479.444V144.75C479.56 134.86 478.4 126.922 476.312 121.066ZM437.8 144.62V135.901C437.8 133.819 437.8 124.319 437.916 122.758L446.964 118.463C447.196 120.676 447.428 131.737 447.428 135.901V144.62H437.8Z" fill="white"/>
<path d="M497.032 80.8967C498.888 78.8146 501.556 77.253 505.036 76.212C508.4 75.1709 513.736 74.6504 521.044 74.6504H532.992V94.9998C530 94.9998 528.352 95.3901 527.076 96.0408C525.8 96.6915 525.22 98.9028 525.22 102.156V104.93H532.992V123.929H525.22V203.706L492.74 224.788V123.669H486.012V104.67H492.74C492.74 96.8617 492.972 90.5264 493.436 87.9238C493.9 85.3211 495.176 82.9788 497.032 80.8967Z" fill="white"/>
<path d="M572.344 117.813L573.62 102.067H541.14V224.918L572.62 203.836V174.55C572.62 162.968 572.968 155.551 573.548 152.298C574.244 149.044 575.868 146.572 578.652 144.75C581.436 142.928 586.844 142.017 592.76 142.017V99.8547C583.944 100.505 577.1 106.491 572.344 117.813Z" fill="white"/>
<path fill-rule="evenodd" clip-rule="evenodd" d="M656.24 103.498C661.46 105.971 665.404 109.094 668.304 112.998C671.204 116.902 672.944 120.936 673.988 125.1C675.032 129.264 675.612 135.641 675.612 144.099V172.639C675.612 180.317 675.38 186.433 674.916 191.248C674.684 193.2 674.452 194.891 674.22 196.323C673.292 201.268 671.204 205.953 668.072 210.377C664.94 214.671 660.88 217.925 655.892 220.007C650.904 222.089 645.22 223.13 638.724 223.13C637.1 223.13 635.592 223.13 634.084 223C628.864 222.739 624.34 221.959 620.396 220.527C615.408 218.705 611.58 216.103 608.796 212.459C606.824 209.987 605.2 206.994 604.04 203.61C603.576 202.309 603.228 200.878 602.88 199.447C602.3 196.844 601.952 193.72 601.604 189.946C601.256 186.173 601.14 181.618 601.14 176.543V146.832C601.14 135.641 602.184 126.922 604.388 120.676C606.592 114.429 610.42 109.354 615.988 105.58C621.556 101.807 628.748 99.8547 637.448 99.8547C644.756 99.8547 651.02 101.026 656.24 103.498ZM643.248 193.72V126.141L633.736 130.696V198.275L643.248 193.72Z" fill="white"/>
<path d="M752.012 166.482C749.112 161.927 742.848 156.982 733.452 151.907C727.188 148.394 722.78 145.791 720.344 143.709C719.996 143.449 719.648 143.188 719.416 142.928C717.096 140.846 715.82 139.024 715.356 137.332C714.892 135.641 714.66 133.038 714.66 129.525L724.752 124.71C725.1 126.532 725.216 129.655 725.216 133.819V140.325H725.564L753.52 122.237C753.404 121.456 753.288 120.676 753.172 120.155C752.592 117.292 750.968 114.299 748.3 110.916C745.632 107.532 741.804 104.93 736.816 102.978C731.828 101.026 725.796 99.9849 718.72 99.9849C711.528 99.9849 705.264 101.156 699.928 103.629C694.476 106.101 690.764 109.615 688.444 114.169C686.24 118.594 685.08 125.751 685.08 135.25C685.08 142.017 686.124 147.873 688.212 152.688C690.3 157.633 696.1 163.098 705.728 169.084C717.096 176.242 723.36 179.406 724.636 180.967C725.796 182.399 726.376 185.912 726.376 191.508L715.356 196.713C715.008 194.371 714.776 190.987 714.776 186.303V178.755H685.892V184.611C685.892 194.631 686.936 202.049 689.14 206.994C691.344 211.939 695.404 215.842 701.204 218.705C707.12 221.568 714.196 223 722.432 223C729.856 223 736.236 221.698 741.572 218.966C746.908 216.233 750.62 212.459 752.94 207.514C755.144 202.569 756.304 195.152 756.304 185.392C756.304 179.015 755.492 174.81 753.984 170.646C753.52 169.215 752.824 167.783 752.012 166.482Z" fill="white"/>
<path d="M801.456 190.953C801.456 198.891 801.688 203.316 802.384 204.227C803.08 205.138 806.096 205.528 811.432 205.528V206.439L783.94 224.267C783.708 224.202 783.476 224.169 783.244 224.137C783.012 224.104 782.78 224.072 782.548 224.007C779.416 223.226 776.632 221.664 774.196 219.192C771.76 216.719 770.252 213.857 769.672 210.603C769.092 207.35 768.744 199.802 768.744 187.83V123.929H761.784V109.224L801.456 86.3212V104.93H810.272V123.929H801.456V190.953Z" fill="white"/>
<path d="M959.34 93.9989H925.816L924.816 74.9998H944.536C952.192 74.9998 959.34 81.8967 959.34 90.4853V93.9989Z" fill="white"/>
<path d="M925.004 102.067H958.528V203.446L925.352 224.918H925.004V102.067Z" fill="white"/>
<path d="M847.392 224.918H847.508L881.264 203.056V160.496H912.26V132.648H881.264V104.93H914.812L913.812 74.9998H846.392L847.392 224.918Z" fill="white"/>
<path d="M1024.14 99.8547C1029.71 99.8547 1034.23 101.286 1037.83 104.279C1041.42 107.272 1043.74 110.916 1044.56 115.47C1045.6 119.895 1046.06 127.312 1046.06 137.853V200.576L1013.58 224.657V132.908L1003.61 137.723V203.446L971.128 224.527V101.937H1004.19L1003.61 112.998C1006.04 108.574 1008.94 105.32 1012.31 103.108C1015.79 100.896 1019.73 99.8547 1024.14 99.8547Z" fill="white"/>
<path fill-rule="evenodd" clip-rule="evenodd" d="M1130.35 161.797C1130.35 142.017 1129.77 128.874 1128.61 122.498C1127.45 116.121 1124.09 110.786 1118.52 106.361C1112.95 101.937 1104.6 99.8547 1093.7 99.8547C1084.53 99.8547 1077.11 101.807 1071.31 105.58C1065.51 109.484 1061.8 113.909 1059.82 118.854C1057.97 123.929 1056.92 131.086 1056.92 140.325V148.394H1087.43V122.628L1097.18 117.943C1097.52 120.155 1097.64 132.257 1097.64 136.161C1097.64 141.106 1097.29 144.49 1096.48 146.051C1095.78 147.743 1089.98 150.866 1079.31 155.551C1069.34 159.845 1063.07 163.619 1060.52 166.872C1057.97 170.125 1056.69 176.242 1056.69 185.221V194.111C1056.69 206.213 1059.01 214.021 1063.77 217.664C1068.52 221.308 1073.74 223 1079.43 223C1083.72 223 1087.55 221.959 1090.68 219.746C1093.81 217.534 1096.36 214.411 1098.34 210.117V223.787H1098.92L1130 203.617V161.797H1130.35ZM1097.87 188.515C1097.87 194.501 1097.52 198.275 1096.94 199.706C1096.36 201.138 1094.97 201.788 1093 201.788C1090.8 201.788 1089.4 200.877 1088.71 199.056C1088.01 197.234 1087.66 193.2 1087.66 187.084C1087.66 181.618 1088.13 178.454 1088.94 175.591C1089.75 172.728 1092.77 169.084 1097.99 164.79V188.515H1097.87Z" fill="white"/>
<path d="M1195.5 99.8547C1201.07 99.8547 1205.59 101.286 1209.19 104.279C1212.78 107.272 1214.99 110.916 1216.15 115.47C1217.19 119.895 1217.66 127.312 1217.66 137.853V203.227L1185.99 223.787H1185.06V135.25L1175.08 140.065V202.836L1142.6 223.787H1142.49V101.937H1175.55L1175.08 111.697C1175.26 111.632 1175.4 111.567 1175.55 111.501C1175.69 111.436 1175.84 111.371 1176.01 111.306C1178.1 107.793 1180.65 105.06 1183.67 103.108C1187.15 100.896 1191.09 99.8547 1195.5 99.8547Z" fill="white"/>
<path d="M1301.6 147.222C1301.6 135.901 1300.55 127.312 1298.58 121.066C1298.23 120.025 1297.88 119.114 1297.42 118.203C1295.22 113.388 1291.62 109.224 1286.52 105.841C1280.48 101.807 1273.29 99.7246 1264.82 99.7246C1256.24 99.7246 1249.05 101.807 1243.13 105.841C1237.22 109.875 1233.27 114.56 1231.42 119.765C1229.56 124.97 1228.63 132.648 1228.63 142.798V176.892C1228.63 188.604 1229.79 196.583 1232 202.96C1234.2 209.336 1238.03 214.281 1243.36 217.794C1248.7 221.308 1256.01 223.13 1265.17 223.13C1272.36 223.13 1278.4 221.829 1283.27 219.226C1288.14 216.623 1292.08 212.849 1295.1 207.905C1298.12 202.829 1299.97 198.015 1300.55 193.2C1300.67 192.289 1300.78 191.248 1300.78 190.207L1272.48 171.858V186.912C1272.48 193.159 1272.13 196.323 1271.32 198.535C1270.51 200.747 1269 201.918 1266.8 201.918C1264.94 201.918 1263.55 200.877 1262.5 198.665C1261.58 196.583 1261.11 193.33 1261.11 189.036V122.628L1270.74 118.073V147.222H1301.6Z" fill="white"/>
<path fill-rule="evenodd" clip-rule="evenodd" d="M1368.88 105.581C1374.91 109.484 1378.97 114.69 1381.4 121.066C1383.84 127.573 1385 136.552 1385 148.133V164.139H1342.43V188.905C1342.43 194.371 1342.78 197.884 1343.47 199.446C1344.17 201.008 1345.56 201.788 1347.53 201.788C1350.08 201.788 1351.71 200.747 1352.52 198.665C1353.33 196.583 1353.8 192.549 1353.8 186.563V170.817L1354.03 171.817L1384.3 190.467C1384.19 192.939 1383.84 195.022 1383.49 196.843C1382.68 200.877 1380.71 205.042 1377.69 209.596C1374.68 214.151 1370.73 217.534 1366.09 219.746C1361.45 221.959 1355.54 223.13 1348.46 223.13C1341.62 223.13 1335.47 221.959 1330.25 219.746C1324.91 217.534 1320.85 214.541 1317.95 210.637C1315.05 206.733 1313.08 202.439 1311.92 197.754C1311.92 197.689 1311.89 197.592 1311.86 197.494C1311.83 197.396 1311.8 197.299 1311.8 197.234C1310.76 192.549 1310.18 186.912 1310.18 178.324V143.318C1310.18 132.778 1311.46 124.58 1314.01 118.463C1316.33 112.738 1320.27 108.313 1325.49 105.06C1325.67 104.995 1325.81 104.897 1325.96 104.8C1326.1 104.702 1326.25 104.605 1326.42 104.539C1332.22 101.286 1338.83 99.7246 1346.26 99.7246C1355.42 99.7246 1362.96 101.677 1368.88 105.581ZM1342.89 144.62H1352.29V136.029C1352.29 133.291 1352.29 120.025 1352.17 118.203L1342.89 122.758V144.62Z" fill="white"/>
</svg>
