<svg width="1534" height="450" viewBox="0 0 1534 450" fill="none" xmlns="http://www.w3.org/2000/svg">
<path fill-rule="evenodd" clip-rule="evenodd" d="M74 285.902V162.098C74 152.731 79.0059 144.098 87.1045 139.414L194.396 77.5125C202.494 72.8292 212.506 72.8292 220.604 77.5125L327.896 139.414C335.994 144.098 341 152.731 341 162.098V285.902C341 295.269 335.994 303.902 327.896 308.586L220.604 370.488C212.506 375.171 202.494 375.171 194.396 370.488L87.1045 308.586C79.0059 303.902 74 295.269 74 285.902ZM226.309 118.106L290.607 155.369C301.238 161.53 307.783 172.888 307.783 185.176V185.702C307.923 186.088 308 186.517 308 186.982V260.192C308 273.2 301.034 285.211 289.743 291.67L248.105 315.487C246.476 316.419 244.406 315.954 243.331 314.415L236.584 304.75C234.122 301.224 233.968 296.58 236.191 292.899L266.426 242.82L289.637 204.173C297.621 190.88 288.046 173.959 272.539 173.959H144.651C129.947 173.959 120.588 189.167 126.443 202.062L181.286 292.899C183.508 296.58 183.354 301.224 180.893 304.75L174.145 314.415C173.071 315.954 171 316.419 169.371 315.487L127.734 291.67C116.443 285.211 109.476 273.2 109.476 260.192V258.5H109.24V186.087C109.24 173.843 115.74 162.518 126.312 156.341L191.656 118.166C202.356 111.916 215.588 111.892 226.309 118.106ZM202.177 334.13L191.267 327.845C187.609 325.737 186.517 320.962 188.896 317.474L204.471 294.634C206.63 291.467 211.3 291.467 213.459 294.634L229.035 317.474C231.413 320.962 230.321 325.737 226.663 327.845L215.753 334.13C211.552 336.55 206.379 336.55 202.177 334.13ZM216.855 203.529L239.382 243.327C242.803 249.371 238.437 256.859 231.493 256.859H186.438C179.493 256.859 175.127 249.371 178.548 243.327L201.075 203.529C204.547 197.395 213.383 197.395 216.855 203.529Z" fill="white"/>
<path fill-rule="evenodd" clip-rule="evenodd" d="M461.688 159.451C458.672 155.547 454.264 152.815 448.58 151.123C442.78 149.431 431.76 148.65 415.404 148.65H390V296.788H432.804C435.472 296.788 438.024 296.787 440.228 296.657C444.752 296.397 448.348 296.007 451.016 295.356C455.076 294.315 458.44 292.623 461.108 290.151C463.892 287.678 465.748 284.165 466.908 279.74C467.488 277.528 467.836 274.015 468.184 269.59C468.416 265.296 468.532 259.83 468.532 253.454V201.182C468.532 187.388 468.184 177.019 467.372 172.334C466.676 167.65 464.704 163.355 461.688 159.451ZM434.66 254.625L423.988 259.83V184.916L434.66 179.841V254.625Z" fill="white"/>
<path fill-rule="evenodd" clip-rule="evenodd" d="M550.312 195.066C547.876 188.69 543.816 183.484 537.784 179.581C531.868 175.677 524.328 173.725 515.164 173.725C507.74 173.725 501.128 175.286 495.328 178.539C489.528 181.793 485.468 186.347 482.916 192.463C480.364 198.58 479.088 206.778 479.088 217.318V251.324C479.088 260.173 479.668 267.07 480.828 271.754C481.988 276.439 483.96 280.733 486.86 284.637C489.76 288.541 493.82 291.534 499.156 293.746C504.376 295.959 510.524 297.13 517.368 297.13C524.444 297.13 530.36 295.959 535 293.746C539.64 291.534 543.584 288.151 546.6 283.596C549.616 279.042 551.588 274.877 552.4 270.843C552.748 269.022 553.096 266.939 553.212 264.467L523.052 245.947L522.704 244.947V260.693C522.704 266.679 522.24 270.713 521.428 272.795C520.616 274.877 518.992 275.918 516.44 275.918C514.468 275.918 513.076 275.138 512.38 273.576C511.684 272.015 511.336 268.501 511.336 263.036V238.139H553.444V218.75C553.56 208.86 552.4 200.922 550.312 195.066ZM511.8 218.62V209.901C511.8 207.819 511.8 198.319 511.916 196.758L520.964 192.463C521.196 194.676 521.428 205.737 521.428 209.901V218.62H511.8Z" fill="white"/>
<path d="M571.032 154.897C572.888 152.815 575.556 151.253 579.036 150.212C582.4 149.171 587.736 148.65 595.044 148.65H606.992V169C604 169 602.352 169.39 601.076 170.041C599.8 170.691 599.22 172.903 599.22 176.156V178.93H606.992V197.929H599.22V277.706L566.74 298.788V197.669H560.012V178.67H566.74C566.74 170.862 566.972 164.526 567.436 161.924C567.9 159.321 569.176 156.979 571.032 154.897Z" fill="white"/>
<path d="M646.344 191.813L647.62 176.067H615.14V298.918L646.62 277.836V248.55C646.62 236.968 646.968 229.551 647.548 226.298C648.244 223.044 649.868 220.572 652.652 218.75C655.436 216.928 660.844 216.017 666.76 216.017V173.855C657.944 174.505 651.1 180.491 646.344 191.813Z" fill="white"/>
<path fill-rule="evenodd" clip-rule="evenodd" d="M730.24 177.498C735.46 179.971 739.404 183.094 742.304 186.998C745.204 190.902 746.944 194.936 747.988 199.1C749.032 203.264 749.612 209.641 749.612 218.099V246.639C749.612 254.317 749.38 260.433 748.916 265.248C748.684 267.2 748.452 268.891 748.22 270.323C747.292 275.268 745.204 279.953 742.072 284.377C738.94 288.671 734.88 291.925 729.892 294.007C724.904 296.089 719.22 297.13 712.724 297.13C711.1 297.13 709.592 297.13 708.084 297C702.864 296.739 698.34 295.959 694.396 294.527C689.408 292.705 685.58 290.103 682.796 286.459C680.824 283.987 679.2 280.994 678.04 277.61C677.576 276.309 677.228 274.878 676.88 273.447C676.3 270.844 675.952 267.72 675.604 263.946C675.256 260.173 675.14 255.618 675.14 250.543V220.832C675.14 209.641 676.184 200.922 678.388 194.676C680.592 188.429 684.42 183.354 689.988 179.58C695.556 175.807 702.748 173.855 711.448 173.855C718.756 173.855 725.02 175.026 730.24 177.498ZM717.248 267.72V200.141L707.736 204.696V272.275L717.248 267.72Z" fill="white"/>
<path d="M826.012 240.482C823.112 235.927 816.848 230.982 807.452 225.907C801.188 222.394 796.78 219.791 794.344 217.709C793.996 217.449 793.648 217.188 793.416 216.928C791.096 214.846 789.82 213.024 789.356 211.332C788.892 209.641 788.66 207.038 788.66 203.525L798.752 198.71C799.1 200.532 799.216 203.655 799.216 207.819V214.325H799.564L827.52 196.237C827.404 195.456 827.288 194.676 827.172 194.155C826.592 191.292 824.968 188.299 822.3 184.916C819.632 181.532 815.804 178.93 810.816 176.978C805.828 175.026 799.796 173.985 792.72 173.985C785.528 173.985 779.264 175.156 773.928 177.629C768.476 180.101 764.764 183.615 762.444 188.169C760.24 192.594 759.08 199.751 759.08 209.25C759.08 216.017 760.124 221.873 762.212 226.688C764.3 231.633 770.1 237.098 779.728 243.084C791.096 250.242 797.36 253.406 798.636 254.967C799.796 256.399 800.376 259.912 800.376 265.508L789.356 270.713C789.008 268.371 788.776 264.987 788.776 260.303V252.755H759.892V258.611C759.892 268.631 760.936 276.049 763.14 280.994C765.344 285.939 769.404 289.842 775.204 292.705C781.12 295.568 788.196 297 796.432 297C803.856 297 810.236 295.698 815.572 292.966C820.908 290.233 824.62 286.459 826.94 281.514C829.144 276.569 830.304 269.152 830.304 259.392C830.304 253.015 829.492 248.81 827.984 244.646C827.52 243.215 826.824 241.783 826.012 240.482Z" fill="white"/>
<path d="M875.456 264.953C875.456 272.891 875.688 277.316 876.384 278.227C877.08 279.138 880.096 279.528 885.432 279.528V280.439L857.94 298.267C857.708 298.202 857.476 298.169 857.244 298.137C857.012 298.104 856.78 298.072 856.548 298.007C853.416 297.226 850.632 295.664 848.196 293.192C845.76 290.719 844.252 287.857 843.672 284.603C843.092 281.35 842.744 273.802 842.744 261.83V197.929H835.784V183.224L875.456 160.321V178.93H884.272V197.929H875.456V264.953Z" fill="white"/>
<path d="M1033.34 167.999H999.816L998.816 149H1018.54C1026.19 149 1033.34 155.897 1033.34 164.485V167.999Z" fill="white"/>
<path d="M999.004 176.067H1032.53V277.446L999.352 298.918H999.004V176.067Z" fill="white"/>
<path d="M921.392 298.918H921.508L955.264 277.056V234.496H986.26V206.648H955.264V178.93H988.812L987.812 149H920.392L921.392 298.918Z" fill="white"/>
<path d="M1098.14 173.855C1103.71 173.855 1108.23 175.286 1111.83 178.279C1115.42 181.272 1117.74 184.916 1118.56 189.47C1119.6 193.895 1120.06 201.312 1120.06 211.853V274.576L1087.58 298.657V206.908L1077.61 211.723V277.446L1045.13 298.527V175.937H1078.19L1077.61 186.998C1080.04 182.574 1082.94 179.32 1086.31 177.108C1089.79 174.896 1093.73 173.855 1098.14 173.855Z" fill="white"/>
<path fill-rule="evenodd" clip-rule="evenodd" d="M1204.35 235.797C1204.35 216.017 1203.77 202.874 1202.61 196.498C1201.45 190.121 1198.09 184.786 1192.52 180.361C1186.95 175.937 1178.6 173.855 1167.7 173.855C1158.53 173.855 1151.11 175.807 1145.31 179.58C1139.51 183.484 1135.8 187.909 1133.82 192.854C1131.97 197.929 1130.92 205.086 1130.92 214.325V222.394H1161.43V196.628L1171.18 191.943C1171.52 194.155 1171.64 206.257 1171.64 210.161C1171.64 215.106 1171.29 218.49 1170.48 220.051C1169.78 221.743 1163.98 224.866 1153.31 229.551C1143.34 233.845 1137.07 237.619 1134.52 240.872C1131.97 244.125 1130.69 250.242 1130.69 259.221V268.111C1130.69 280.213 1133.01 288.021 1137.77 291.664C1142.52 295.308 1147.74 297 1153.43 297C1157.72 297 1161.55 295.959 1164.68 293.746C1167.81 291.534 1170.36 288.411 1172.34 284.117V297.787H1172.92L1204 277.617V235.797H1204.35ZM1171.87 262.515C1171.87 268.501 1171.52 272.275 1170.94 273.706C1170.36 275.138 1168.97 275.788 1167 275.788C1164.8 275.788 1163.4 274.877 1162.71 273.056C1162.01 271.234 1161.66 267.2 1161.66 261.084C1161.66 255.618 1162.13 252.454 1162.94 249.591C1163.75 246.728 1166.77 243.084 1171.99 238.79V262.515H1171.87Z" fill="white"/>
<path d="M1269.5 173.855C1275.07 173.855 1279.59 175.286 1283.19 178.279C1286.78 181.272 1288.99 184.916 1290.15 189.47C1291.19 193.895 1291.66 201.312 1291.66 211.853V277.227L1259.99 297.787H1259.06V209.25L1249.08 214.065V276.836L1216.6 297.787H1216.49V175.937H1249.55L1249.08 185.697C1249.26 185.632 1249.4 185.567 1249.55 185.501C1249.69 185.436 1249.84 185.371 1250.01 185.306C1252.1 181.793 1254.65 179.06 1257.67 177.108C1261.15 174.896 1265.09 173.855 1269.5 173.855Z" fill="white"/>
<path d="M1375.6 221.222C1375.6 209.901 1374.55 201.312 1372.58 195.066C1372.23 194.025 1371.88 193.114 1371.42 192.203C1369.22 187.388 1365.62 183.224 1360.52 179.841C1354.48 175.807 1347.29 173.725 1338.82 173.725C1330.24 173.725 1323.05 175.807 1317.13 179.841C1311.22 183.875 1307.27 188.56 1305.42 193.765C1303.56 198.97 1302.63 206.648 1302.63 216.798V250.892C1302.63 262.604 1303.79 270.583 1306 276.96C1308.2 283.336 1312.03 288.281 1317.36 291.794C1322.7 295.308 1330.01 297.13 1339.17 297.13C1346.36 297.13 1352.4 295.829 1357.27 293.226C1362.14 290.623 1366.08 286.849 1369.1 281.905C1372.12 276.829 1373.97 272.015 1374.55 267.2C1374.67 266.289 1374.78 265.248 1374.78 264.207L1346.48 245.858V260.912C1346.48 267.159 1346.13 270.323 1345.32 272.535C1344.51 274.747 1343 275.918 1340.8 275.918C1338.94 275.918 1337.55 274.877 1336.5 272.665C1335.58 270.583 1335.11 267.33 1335.11 263.036V196.628L1344.74 192.073V221.222H1375.6Z" fill="white"/>
<path fill-rule="evenodd" clip-rule="evenodd" d="M1442.88 179.581C1448.91 183.484 1452.97 188.69 1455.4 195.066C1457.84 201.573 1459 210.552 1459 222.133V238.139H1416.43V262.905C1416.43 268.371 1416.78 271.884 1417.47 273.446C1418.17 275.008 1419.56 275.788 1421.53 275.788C1424.08 275.788 1425.71 274.747 1426.52 272.665C1427.33 270.583 1427.8 266.549 1427.8 260.563V244.817L1428.03 245.817L1458.3 264.467C1458.19 266.939 1457.84 269.022 1457.49 270.843C1456.68 274.877 1454.71 279.042 1451.69 283.596C1448.68 288.151 1444.73 291.534 1440.09 293.746C1435.45 295.959 1429.54 297.13 1422.46 297.13C1415.62 297.13 1409.47 295.959 1404.25 293.746C1398.91 291.534 1394.85 288.541 1391.95 284.637C1389.05 280.733 1387.08 276.439 1385.92 271.754C1385.92 271.689 1385.89 271.592 1385.86 271.494C1385.83 271.396 1385.8 271.299 1385.8 271.234C1384.76 266.549 1384.18 260.912 1384.18 252.324V217.318C1384.18 206.778 1385.46 198.58 1388.01 192.463C1390.33 186.738 1394.27 182.313 1399.49 179.06C1399.67 178.995 1399.81 178.897 1399.96 178.8C1400.1 178.702 1400.25 178.605 1400.42 178.539C1406.22 175.286 1412.83 173.725 1420.26 173.725C1429.42 173.725 1436.96 175.677 1442.88 179.581ZM1416.89 218.62H1426.29V210.029C1426.29 207.291 1426.29 194.025 1426.17 192.203L1416.89 196.758V218.62Z" fill="white"/>
</svg>
