<svg width="1460" height="375" viewBox="0 0 1460 375" fill="none" xmlns="http://www.w3.org/2000/svg">
<path fill-rule="evenodd" clip-rule="evenodd" d="M37 248.902V125.098C37 115.731 42.0059 107.098 50.1045 102.414L157.396 40.5125C165.494 35.8292 175.506 35.8292 183.604 40.5125L290.896 102.414C298.994 107.098 304 115.731 304 125.098V248.902C304 258.269 298.994 266.902 290.896 271.586L183.604 333.488C175.506 338.171 165.494 338.171 157.396 333.488L50.1045 271.586C42.0059 266.902 37 258.269 37 248.902ZM189.309 81.1057L253.607 118.369C264.238 124.53 270.783 135.888 270.783 148.176V148.702C270.923 149.088 271 149.517 271 149.982V223.192C271 236.2 264.034 248.211 252.743 254.67L211.105 278.487C209.476 279.419 207.406 278.954 206.331 277.415L199.584 267.75C197.122 264.224 196.968 259.58 199.191 255.899L229.426 205.82L252.637 167.173C260.621 153.88 251.046 136.959 235.539 136.959H107.651C92.9466 136.959 83.5881 152.167 89.4431 165.062L144.286 255.899C146.508 259.58 146.354 264.224 143.893 267.75L137.145 277.415C136.071 278.954 134 279.419 132.371 278.487L90.7339 254.67C79.443 248.211 72.4762 236.2 72.4762 223.192V221.5H72.2402V149.087C72.2402 136.843 78.7397 125.518 89.3124 119.341L154.656 81.1663C165.356 74.9155 178.588 74.8924 189.309 81.1057ZM165.177 297.13L154.267 290.845C150.609 288.737 149.517 283.962 151.896 280.474L167.471 257.634C169.63 254.467 174.3 254.467 176.459 257.634L192.035 280.474C194.413 283.962 193.321 288.737 189.663 290.845L178.753 297.13C174.552 299.55 169.379 299.55 165.177 297.13ZM179.855 166.529L202.382 206.327C205.803 212.371 201.437 219.859 194.493 219.859H149.438C142.493 219.859 138.127 212.371 141.548 206.327L164.075 166.529C167.547 160.395 176.383 160.395 179.855 166.529Z" fill="white"/>
<path fill-rule="evenodd" clip-rule="evenodd" d="M424.688 122.451C421.672 118.547 417.264 115.815 411.58 114.123C405.78 112.431 394.76 111.65 378.404 111.65H353V259.788H395.804C398.472 259.788 401.024 259.787 403.228 259.657C407.752 259.397 411.348 259.007 414.016 258.356C418.076 257.315 421.44 255.623 424.108 253.151C426.892 250.678 428.748 247.165 429.908 242.74C430.488 240.528 430.836 237.015 431.184 232.59C431.416 228.296 431.532 222.83 431.532 216.454V164.182C431.532 150.388 431.184 140.019 430.372 135.334C429.676 130.65 427.704 126.355 424.688 122.451ZM397.66 217.625L386.988 222.83V147.916L397.66 142.841V217.625Z" fill="white"/>
<path fill-rule="evenodd" clip-rule="evenodd" d="M513.312 158.066C510.876 151.69 506.816 146.484 500.784 142.581C494.868 138.677 487.328 136.725 478.164 136.725C470.74 136.725 464.128 138.286 458.328 141.539C452.528 144.793 448.468 149.347 445.916 155.463C443.364 161.58 442.088 169.778 442.088 180.318V214.324C442.088 223.173 442.668 230.07 443.828 234.754C444.988 239.439 446.96 243.733 449.86 247.637C452.76 251.541 456.82 254.534 462.156 256.746C467.376 258.959 473.524 260.13 480.368 260.13C487.444 260.13 493.36 258.959 498 256.746C502.64 254.534 506.584 251.151 509.6 246.596C512.616 242.042 514.588 237.877 515.4 233.843C515.748 232.022 516.096 229.939 516.212 227.467L486.052 208.947L485.704 207.947V223.693C485.704 229.679 485.24 233.713 484.428 235.795C483.616 237.877 481.992 238.918 479.44 238.918C477.468 238.918 476.076 238.138 475.38 236.576C474.684 235.015 474.336 231.501 474.336 226.036V201.139H516.444V181.75C516.56 171.86 515.4 163.922 513.312 158.066ZM474.8 181.62V172.901C474.8 170.819 474.8 161.319 474.916 159.758L483.964 155.463C484.196 157.676 484.428 168.737 484.428 172.901V181.62H474.8Z" fill="white"/>
<path d="M534.032 117.897C535.888 115.815 538.556 114.253 542.036 113.212C545.4 112.171 550.736 111.65 558.044 111.65H569.992V132C567 132 565.352 132.39 564.076 133.041C562.8 133.691 562.22 135.903 562.22 139.156V141.93H569.992V160.929H562.22V240.706L529.74 261.788V160.669H523.012V141.67H529.74C529.74 133.862 529.972 127.526 530.436 124.924C530.9 122.321 532.176 119.979 534.032 117.897Z" fill="white"/>
<path d="M609.344 154.813L610.62 139.067H578.14V261.918L609.62 240.836V211.55C609.62 199.968 609.968 192.551 610.548 189.298C611.244 186.044 612.868 183.572 615.652 181.75C618.436 179.928 623.844 179.017 629.76 179.017V136.855C620.944 137.505 614.1 143.491 609.344 154.813Z" fill="white"/>
<path fill-rule="evenodd" clip-rule="evenodd" d="M693.24 140.498C698.46 142.971 702.404 146.094 705.304 149.998C708.204 153.902 709.944 157.936 710.988 162.1C712.032 166.264 712.612 172.641 712.612 181.099V209.639C712.612 217.317 712.38 223.433 711.916 228.248C711.684 230.2 711.452 231.891 711.22 233.323C710.292 238.268 708.204 242.953 705.072 247.377C701.94 251.671 697.88 254.925 692.892 257.007C687.904 259.089 682.22 260.13 675.724 260.13C674.1 260.13 672.592 260.13 671.084 260C665.864 259.739 661.34 258.959 657.396 257.527C652.408 255.705 648.58 253.103 645.796 249.459C643.824 246.987 642.2 243.994 641.04 240.61C640.576 239.309 640.228 237.878 639.88 236.447C639.3 233.844 638.952 230.72 638.604 226.946C638.256 223.173 638.14 218.618 638.14 213.543V183.832C638.14 172.641 639.184 163.922 641.388 157.676C643.592 151.429 647.42 146.354 652.988 142.58C658.556 138.807 665.748 136.855 674.448 136.855C681.756 136.855 688.02 138.026 693.24 140.498ZM680.248 230.72V163.141L670.736 167.696V235.275L680.248 230.72Z" fill="white"/>
<path d="M789.012 203.482C786.112 198.927 779.848 193.982 770.452 188.907C764.188 185.394 759.78 182.791 757.344 180.709C756.996 180.449 756.648 180.188 756.416 179.928C754.096 177.846 752.82 176.024 752.356 174.332C751.892 172.641 751.66 170.038 751.66 166.525L761.752 161.71C762.1 163.532 762.216 166.655 762.216 170.819V177.325H762.564L790.52 159.237C790.404 158.456 790.288 157.676 790.172 157.155C789.592 154.292 787.968 151.299 785.3 147.916C782.632 144.532 778.804 141.93 773.816 139.978C768.828 138.026 762.796 136.985 755.72 136.985C748.528 136.985 742.264 138.156 736.928 140.629C731.476 143.101 727.764 146.615 725.444 151.169C723.24 155.594 722.08 162.751 722.08 172.25C722.08 179.017 723.124 184.873 725.212 189.688C727.3 194.633 733.1 200.098 742.728 206.084C754.096 213.242 760.36 216.406 761.636 217.967C762.796 219.399 763.376 222.912 763.376 228.508L752.356 233.713C752.008 231.371 751.776 227.987 751.776 223.303V215.755H722.892V221.611C722.892 231.631 723.936 239.049 726.14 243.994C728.344 248.939 732.404 252.842 738.204 255.705C744.12 258.568 751.196 260 759.432 260C766.856 260 773.236 258.698 778.572 255.966C783.908 253.233 787.62 249.459 789.94 244.514C792.144 239.569 793.304 232.152 793.304 222.392C793.304 216.015 792.492 211.81 790.984 207.646C790.52 206.215 789.824 204.783 789.012 203.482Z" fill="white"/>
<path d="M838.456 227.953C838.456 235.891 838.688 240.316 839.384 241.227C840.08 242.138 843.096 242.528 848.432 242.528V243.439L820.94 261.267C820.708 261.202 820.476 261.169 820.244 261.137C820.012 261.104 819.78 261.072 819.548 261.007C816.416 260.226 813.632 258.664 811.196 256.192C808.76 253.719 807.252 250.857 806.672 247.603C806.092 244.35 805.744 236.802 805.744 224.83V160.929H798.784V146.224L838.456 123.321V141.93H847.272V160.929H838.456V227.953Z" fill="white"/>
<path d="M996.34 130.999H962.816L961.816 112H981.536C989.192 112 996.34 118.897 996.34 127.485V130.999Z" fill="white"/>
<path d="M962.004 139.067H995.528V240.446L962.352 261.918H962.004V139.067Z" fill="white"/>
<path d="M884.392 261.918H884.508L918.264 240.056V197.496H949.26V169.648H918.264V141.93H951.812L950.812 112H883.392L884.392 261.918Z" fill="white"/>
<path d="M1061.14 136.855C1066.71 136.855 1071.23 138.286 1074.83 141.279C1078.42 144.272 1080.74 147.916 1081.56 152.47C1082.6 156.895 1083.06 164.312 1083.06 174.853V237.576L1050.58 261.657V169.908L1040.61 174.723V240.446L1008.13 261.527V138.937H1041.19L1040.61 149.998C1043.04 145.574 1045.94 142.32 1049.31 140.108C1052.79 137.896 1056.73 136.855 1061.14 136.855Z" fill="white"/>
<path fill-rule="evenodd" clip-rule="evenodd" d="M1167.35 198.797C1167.35 179.017 1166.77 165.874 1165.61 159.498C1164.45 153.121 1161.09 147.786 1155.52 143.361C1149.95 138.937 1141.6 136.855 1130.7 136.855C1121.53 136.855 1114.11 138.807 1108.31 142.58C1102.51 146.484 1098.8 150.909 1096.82 155.854C1094.97 160.929 1093.92 168.086 1093.92 177.325V185.394H1124.43V159.628L1134.18 154.943C1134.52 157.155 1134.64 169.257 1134.64 173.161C1134.64 178.106 1134.29 181.49 1133.48 183.051C1132.78 184.743 1126.98 187.866 1116.31 192.551C1106.34 196.845 1100.07 200.619 1097.52 203.872C1094.97 207.125 1093.69 213.242 1093.69 222.221V231.111C1093.69 243.213 1096.01 251.021 1100.77 254.664C1105.52 258.308 1110.74 260 1116.43 260C1120.72 260 1124.55 258.959 1127.68 256.746C1130.81 254.534 1133.36 251.411 1135.34 247.117V260.787H1135.92L1167 240.617V198.797H1167.35ZM1134.87 225.515C1134.87 231.501 1134.52 235.275 1133.94 236.706C1133.36 238.138 1131.97 238.788 1130 238.788C1127.8 238.788 1126.4 237.877 1125.71 236.056C1125.01 234.234 1124.66 230.2 1124.66 224.084C1124.66 218.618 1125.13 215.454 1125.94 212.591C1126.75 209.728 1129.77 206.084 1134.99 201.79V225.515H1134.87Z" fill="white"/>
<path d="M1232.5 136.855C1238.07 136.855 1242.59 138.286 1246.19 141.279C1249.78 144.272 1251.99 147.916 1253.15 152.47C1254.19 156.895 1254.66 164.312 1254.66 174.853V240.227L1222.99 260.787H1222.06V172.25L1212.08 177.065V239.836L1179.6 260.787H1179.49V138.937H1212.55L1212.08 148.697C1212.26 148.632 1212.4 148.567 1212.55 148.501C1212.69 148.436 1212.84 148.371 1213.01 148.306C1215.1 144.793 1217.65 142.06 1220.67 140.108C1224.15 137.896 1228.09 136.855 1232.5 136.855Z" fill="white"/>
<path d="M1338.6 184.222C1338.6 172.901 1337.55 164.312 1335.58 158.066C1335.23 157.025 1334.88 156.114 1334.42 155.203C1332.22 150.388 1328.62 146.224 1323.52 142.841C1317.48 138.807 1310.29 136.725 1301.82 136.725C1293.24 136.725 1286.05 138.807 1280.13 142.841C1274.22 146.875 1270.27 151.56 1268.42 156.765C1266.56 161.97 1265.63 169.648 1265.63 179.798V213.892C1265.63 225.604 1266.79 233.583 1269 239.96C1271.2 246.336 1275.03 251.281 1280.36 254.794C1285.7 258.308 1293.01 260.13 1302.17 260.13C1309.36 260.13 1315.4 258.829 1320.27 256.226C1325.14 253.623 1329.08 249.849 1332.1 244.905C1335.12 239.829 1336.97 235.015 1337.55 230.2C1337.67 229.289 1337.78 228.248 1337.78 227.207L1309.48 208.858V223.912C1309.48 230.159 1309.13 233.323 1308.32 235.535C1307.51 237.747 1306 238.918 1303.8 238.918C1301.94 238.918 1300.55 237.877 1299.5 235.665C1298.58 233.583 1298.11 230.33 1298.11 226.036V159.628L1307.74 155.073V184.222H1338.6Z" fill="white"/>
<path fill-rule="evenodd" clip-rule="evenodd" d="M1405.88 142.581C1411.91 146.484 1415.97 151.69 1418.4 158.066C1420.84 164.573 1422 173.552 1422 185.133V201.139H1379.43V225.905C1379.43 231.371 1379.78 234.884 1380.47 236.446C1381.17 238.008 1382.56 238.788 1384.53 238.788C1387.08 238.788 1388.71 237.747 1389.52 235.665C1390.33 233.583 1390.8 229.549 1390.8 223.563V207.817L1391.03 208.817L1421.3 227.467C1421.19 229.939 1420.84 232.022 1420.49 233.843C1419.68 237.877 1417.71 242.042 1414.69 246.596C1411.68 251.151 1407.73 254.534 1403.09 256.746C1398.45 258.959 1392.54 260.13 1385.46 260.13C1378.62 260.13 1372.47 258.959 1367.25 256.746C1361.91 254.534 1357.85 251.541 1354.95 247.637C1352.05 243.733 1350.08 239.439 1348.92 234.754C1348.92 234.689 1348.89 234.592 1348.86 234.494C1348.83 234.396 1348.8 234.299 1348.8 234.234C1347.76 229.549 1347.18 223.912 1347.18 215.324V180.318C1347.18 169.778 1348.46 161.58 1351.01 155.463C1353.33 149.738 1357.27 145.313 1362.49 142.06C1362.67 141.995 1362.81 141.897 1362.96 141.8C1363.1 141.702 1363.25 141.605 1363.42 141.539C1369.22 138.286 1375.83 136.725 1383.26 136.725C1392.42 136.725 1399.96 138.677 1405.88 142.581ZM1379.89 181.62H1389.29V173.029C1389.29 170.291 1389.29 157.025 1389.17 155.203L1379.89 159.758V181.62Z" fill="white"/>
</svg>
