<svg width="267" height="525" viewBox="0 0 267 525" fill="none" xmlns="http://www.w3.org/2000/svg">
<path fill-rule="evenodd" clip-rule="evenodd" d="M0 211.902V88.098C0 78.7315 5.00585 70.0977 13.1045 65.4144L120.396 3.51245C128.494 -1.17082 138.506 -1.17082 146.604 3.51245L253.896 65.4144C261.994 70.0977 267 78.7315 267 88.098V211.902C267 221.269 261.994 229.902 253.896 234.586L146.604 296.488C138.506 301.171 128.494 301.171 120.396 296.488L13.1045 234.586C5.00585 229.902 0 221.269 0 211.902ZM152.309 44.1057L216.607 81.3691C227.238 87.5305 233.783 98.888 233.783 111.176V111.702C233.923 112.088 234 112.517 234 112.982V186.192C234 199.2 227.034 211.211 215.743 217.67L174.105 241.487C172.476 242.419 170.406 241.954 169.331 240.415L162.584 230.75C160.122 227.224 159.968 222.58 162.191 218.899L192.426 168.82L215.637 130.173C223.621 116.88 214.046 99.9593 198.539 99.9593H70.6513C55.9466 99.9593 46.5881 115.167 52.4431 128.062L107.286 218.899C109.508 222.58 109.354 227.224 106.893 230.75L100.145 240.415C99.0711 241.954 97.0003 242.419 95.3713 241.487L53.7339 217.67C42.443 211.211 35.4762 199.2 35.4762 186.192V184.5H35.2402V112.087C35.2402 99.8427 41.7397 88.5182 52.3124 82.3415L117.656 44.1663C128.356 37.9155 141.588 37.8924 152.309 44.1057ZM128.177 260.13L117.267 253.845C113.609 251.737 112.517 246.962 114.896 243.474L130.471 220.634C132.63 217.467 137.3 217.467 139.459 220.634L155.035 243.474C157.413 246.962 156.321 251.737 152.663 253.845L141.753 260.13C137.552 262.55 132.379 262.55 128.177 260.13ZM142.855 129.529L165.382 169.327C168.803 175.371 164.437 182.859 157.493 182.859H112.438C105.493 182.859 101.127 175.371 104.548 169.327L127.075 129.529C130.547 123.395 139.383 123.395 142.855 129.529Z" fill="white"/>
<path d="M69.5202 471.255H55.7126L55.3007 463.46H63.4228C66.5761 463.46 69.5202 466.29 69.5202 469.813V471.255Z" fill="white"/>
<path d="M55.3781 474.565H69.1857V516.157L55.5214 524.966H55.3781V474.565Z" fill="white"/>
<path d="M23.4119 524.966H23.4596L37.3628 515.997V498.536H50.1293V487.111H37.3628V475.739H51.1804L50.7685 463.46H23L23.4119 524.966Z" fill="white"/>
<path d="M96.2096 473.657C98.5029 473.657 100.366 474.244 101.847 475.472C103.328 476.7 104.284 478.195 104.618 480.064C105.048 481.879 105.24 484.922 105.24 489.247V514.98L91.8619 524.859V487.218L87.753 489.193V516.157L74.3754 524.806V474.511H87.9919L87.753 479.049C88.7563 477.234 89.9508 475.899 91.3363 474.992C92.7696 474.084 94.3941 473.657 96.2096 473.657Z" fill="white"/>
<path fill-rule="evenodd" clip-rule="evenodd" d="M139.955 499.07C139.955 490.955 139.717 485.563 139.239 482.947C138.761 480.331 137.375 478.142 135.082 476.327C132.789 474.511 129.349 473.657 124.858 473.657C121.083 473.657 118.026 474.458 115.637 476.006C113.248 477.608 111.719 479.423 110.907 481.452C110.142 483.534 109.712 486.47 109.712 490.261V493.571H122.278V483L126.291 481.078C126.434 481.986 126.482 486.951 126.482 488.552C126.482 490.581 126.339 491.969 126.004 492.61C125.718 493.304 123.329 494.585 118.933 496.507C114.825 498.269 112.245 499.817 111.194 501.152C110.142 502.487 109.617 504.996 109.617 508.68V512.327C109.617 517.292 110.572 520.496 112.531 521.99C114.49 523.485 116.64 524.179 118.981 524.179C120.749 524.179 122.326 523.752 123.616 522.845C124.906 521.937 125.957 520.656 126.769 518.894V524.503H127.008L139.812 516.227V499.07H139.955ZM126.578 510.031C126.578 512.487 126.434 514.036 126.196 514.623C125.957 515.21 125.383 515.477 124.571 515.477C123.663 515.477 123.09 515.103 122.803 514.356C122.517 513.608 122.373 511.953 122.373 509.444C122.373 507.202 122.565 505.904 122.899 504.729C123.233 503.555 124.476 502.06 126.626 500.298V510.031H126.578Z" fill="white"/>
<path d="M166.788 473.657C169.082 473.657 170.945 474.244 172.426 475.472C173.907 476.7 174.815 478.195 175.293 480.064C175.723 481.879 175.914 484.922 175.914 489.247V516.067L162.871 524.503H162.488V488.179L158.38 490.154V515.907L145.002 524.503H144.954V474.511H158.571L158.38 478.515C158.451 478.489 158.511 478.462 158.571 478.435C158.63 478.409 158.69 478.382 158.762 478.355C159.622 476.914 160.673 475.793 161.915 474.992C163.348 474.084 164.973 473.657 166.788 473.657Z" fill="white"/>
<path d="M210.486 493.091C210.486 488.446 210.056 484.922 209.244 482.359C209.101 481.932 208.957 481.559 208.766 481.185C207.858 479.21 206.377 477.501 204.275 476.113C201.791 474.458 198.829 473.604 195.341 473.604C191.805 473.604 188.843 474.458 186.406 476.113C183.97 477.768 182.345 479.69 181.581 481.826C180.817 483.961 180.434 487.111 180.434 491.275V505.263C180.434 510.068 180.912 513.342 181.82 515.958C182.728 518.574 184.304 520.602 186.502 522.044C188.7 523.485 191.71 524.233 195.484 524.233C198.446 524.233 200.931 523.699 202.937 522.631C204.944 521.563 206.568 520.015 207.811 517.986C209.053 515.904 209.817 513.929 210.056 511.953C210.104 511.58 210.152 511.153 210.152 510.726L198.494 503.198V509.374C198.494 511.937 198.351 513.235 198.016 514.142C197.682 515.05 197.061 515.53 196.153 515.53C195.389 515.53 194.815 515.103 194.385 514.196C194.003 513.342 193.812 512.007 193.812 510.245V483L197.777 481.132V493.091H210.486Z" fill="white"/>
<path fill-rule="evenodd" clip-rule="evenodd" d="M238.197 476.006C240.682 477.608 242.354 479.743 243.357 482.359C244.361 485.029 244.838 488.713 244.838 493.464V500.031H227.304V510.192C227.304 512.434 227.447 513.875 227.734 514.516C228.021 515.157 228.594 515.477 229.406 515.477C230.457 515.477 231.126 515.05 231.461 514.196C231.795 513.342 231.986 511.687 231.986 509.231V502.771L232.082 503.181L244.552 510.832C244.504 511.847 244.361 512.701 244.217 513.448C243.883 515.103 243.07 516.812 241.828 518.68C240.586 520.549 238.962 521.937 237.051 522.845C235.139 523.752 232.703 524.233 229.788 524.233C226.97 524.233 224.437 523.752 222.287 522.845C220.09 521.937 218.417 520.709 217.223 519.108C216.029 517.506 215.216 515.744 214.739 513.822C214.739 513.795 214.727 513.755 214.715 513.715C214.703 513.675 214.691 513.635 214.691 513.608C214.261 511.687 214.022 509.374 214.022 505.85V491.489C214.022 487.164 214.547 483.801 215.599 481.292C216.554 478.943 218.179 477.127 220.329 475.793C220.4 475.766 220.46 475.726 220.52 475.686C220.579 475.646 220.639 475.606 220.711 475.579C223.1 474.244 225.823 473.604 228.881 473.604C232.655 473.604 235.761 474.405 238.197 476.006ZM227.495 492.023H231.365V488.498C231.365 487.375 231.365 481.932 231.317 481.185L227.495 483.053V492.023Z" fill="white"/>
<path fill-rule="evenodd" clip-rule="evenodd" d="M61.5879 377.431C60.3457 375.83 58.5301 374.708 56.1891 374.014C53.8002 373.32 49.2613 373 42.5248 373H32.0615V433.776H49.6913C50.7902 433.776 51.8413 433.776 52.7491 433.722C54.6124 433.616 56.0935 433.455 57.1924 433.188C58.8646 432.761 60.2501 432.067 61.349 431.053C62.4957 430.039 63.2601 428.597 63.7379 426.782C63.9768 425.874 64.1201 424.433 64.2634 422.618C64.359 420.856 64.4068 418.613 64.4068 415.997V394.552C64.4068 388.893 64.2634 384.639 63.929 382.717C63.6423 380.795 62.8301 379.033 61.5879 377.431ZM50.4558 416.478L46.0603 418.613V387.879L50.4558 385.796V416.478Z" fill="white"/>
<path fill-rule="evenodd" clip-rule="evenodd" d="M98.0897 392.043C97.0864 389.427 95.4142 387.291 92.9298 385.69C90.4931 384.088 87.3876 383.287 83.6132 383.287C80.5554 383.287 77.8321 383.928 75.4433 385.262C73.0544 386.597 71.3822 388.466 70.3311 390.975C69.28 393.484 68.7544 396.848 68.7544 401.172V415.123C68.7544 418.754 68.9933 421.583 69.4711 423.505C69.9489 425.427 70.7611 427.189 71.9555 428.791C73.1499 430.393 74.8222 431.62 77.0199 432.528C79.1699 433.436 81.7021 433.916 84.5209 433.916C87.4354 433.916 89.872 433.436 91.7831 432.528C93.6942 431.62 95.3186 430.232 96.5608 428.364C97.803 426.495 98.6152 424.787 98.9497 423.132C99.093 422.384 99.2364 421.53 99.2841 420.516L86.862 412.918L86.7187 412.507V418.967C86.7187 421.423 86.5276 423.078 86.1932 423.933C85.8587 424.787 85.1898 425.214 84.1387 425.214C83.3265 425.214 82.7532 424.894 82.4665 424.253C82.1799 423.612 82.0365 422.171 82.0365 419.928V409.714H99.3797V401.759C99.4275 397.702 98.9497 394.445 98.0897 392.043ZM82.2276 401.706V398.129C82.2276 397.275 82.2276 393.378 82.2754 392.737L86.002 390.975C86.0976 391.883 86.1932 396.421 86.1932 398.129V401.706H82.2276Z" fill="white"/>
<path d="M106.624 375.563C107.388 374.708 108.487 374.068 109.92 373.641C111.306 373.214 113.504 373 116.514 373H121.435V381.349C120.202 381.349 119.524 381.509 118.998 381.776C118.473 382.043 118.234 382.95 118.234 384.285V385.423H121.435V393.217H118.234V425.947L104.856 434.596V393.111H102.085V385.316H104.856C104.856 382.113 104.952 379.513 105.143 378.446C105.334 377.378 105.859 376.417 106.624 375.563Z" fill="white"/>
<path d="M137.643 390.708L138.168 384.248H124.791V434.65L137.756 426.001V413.985C137.756 409.234 137.9 406.191 138.139 404.856C138.425 403.521 139.094 402.507 140.241 401.759C141.388 401.012 143.615 400.638 146.052 400.638V383.341C142.421 383.607 139.602 386.063 137.643 390.708Z" fill="white"/>
<path fill-rule="evenodd" clip-rule="evenodd" d="M172.197 384.835C174.347 385.85 175.972 387.131 177.166 388.733C178.361 390.334 179.077 391.989 179.507 393.698C179.937 395.406 180.176 398.022 180.176 401.493V413.201C180.176 416.351 180.081 418.861 179.889 420.836C179.794 421.637 179.698 422.331 179.603 422.918C179.221 424.947 178.361 426.869 177.071 428.684C175.781 430.446 174.108 431.781 172.054 432.635C170 433.489 167.658 433.916 164.983 433.916C164.314 433.916 163.693 433.916 163.072 433.863C160.922 433.756 159.059 433.436 157.434 432.848C155.38 432.101 153.803 431.033 152.656 429.538C151.844 428.524 151.175 427.296 150.698 425.908C150.506 425.374 150.363 424.787 150.22 424.2C149.981 423.132 149.838 421.85 149.694 420.302C149.551 418.754 149.503 416.885 149.503 414.803V402.614C149.503 398.022 149.933 394.445 150.841 391.883C151.749 389.32 153.325 387.238 155.619 385.69C157.912 384.141 160.874 383.341 164.457 383.341C167.467 383.341 170.047 383.821 172.197 384.835ZM166.846 421.85V394.125L162.929 395.994V423.719L166.846 421.85Z" fill="white"/>
<path d="M211.643 410.675C210.449 408.807 207.869 406.778 203.999 404.696C201.419 403.254 199.603 402.187 198.6 401.332C198.457 401.226 198.313 401.119 198.218 401.012C197.262 400.158 196.737 399.41 196.546 398.716C196.354 398.022 196.259 396.955 196.259 395.513L200.416 393.538C200.559 394.285 200.607 395.566 200.607 397.275V399.944H200.75L212.264 392.523C212.217 392.203 212.169 391.883 212.121 391.669C211.882 390.495 211.213 389.267 210.114 387.879C209.015 386.49 207.439 385.423 205.384 384.622C203.33 383.821 200.846 383.394 197.931 383.394C194.969 383.394 192.389 383.874 190.191 384.889C187.946 385.903 186.417 387.345 185.461 389.213C184.553 391.028 184.076 393.965 184.076 397.862C184.076 400.638 184.506 403.041 185.366 405.016C186.226 407.045 188.615 409.287 192.58 411.743C197.262 414.679 199.842 415.978 200.368 416.618C200.846 417.206 201.084 418.647 201.084 420.943L196.546 423.078C196.402 422.117 196.307 420.729 196.307 418.807V415.711H184.41V418.113C184.41 422.224 184.84 425.267 185.748 427.296C186.656 429.325 188.328 430.926 190.717 432.101C193.153 433.275 196.068 433.863 199.46 433.863C202.518 433.863 205.146 433.329 207.343 432.208C209.541 431.087 211.07 429.538 212.025 427.51C212.933 425.481 213.411 422.438 213.411 418.434C213.411 415.817 213.077 414.092 212.455 412.384C212.264 411.797 211.978 411.209 211.643 410.675Z" fill="white"/>
<path d="M232.008 420.715C232.008 423.972 232.103 425.787 232.39 426.161C232.677 426.535 233.919 426.695 236.117 426.695V427.068L224.794 434.383C224.698 434.356 224.602 434.343 224.507 434.329C224.411 434.316 224.316 434.303 224.22 434.276C222.93 433.956 221.784 433.315 220.78 432.301C219.777 431.286 219.156 430.112 218.917 428.777C218.678 427.442 218.535 424.346 218.535 419.434V393.217H215.668V387.184L232.008 377.788V385.423H235.639V393.217H232.008V420.715Z" fill="white"/>
</svg>
